<?xml version="1.0" encoding="UTF-8" standalone="no"?>
<svg
   xmlns:dc="https://purl.org/dc/elements/1.1/"
   xmlns:cc="https://creativecommons.org/ns#"
   xmlns:rdf="https://www.w3.org/1999/02/22-rdf-syntax-ns#"
   xmlns:svg="https://www.w3.org/2000/svg"
   xmlns="https://www.w3.org/2000/svg"
   viewBox="0 0 183.75 182.5"
   height="182.5"
   width="183.75"
   xml:space="preserve"
   version="1.1"
   id="svg2"><metadata
     id="metadata8"><rdf:RDF><cc:Work
         rdf:about=""><dc:format>image/svg+xml</dc:format><dc:type
           rdf:resource="https://purl.org/dc/dcmitype/StillImage" /></cc:Work></rdf:RDF></metadata><defs
     id="defs6" /><g
     transform="matrix(1.25,0,0,-1.25,0,182.5)"
     id="g10"><g
       transform="scale(0.1,0.1)"
       id="g12"><path
         id="path14"
         style="fill:#ffffff;fill-opacity:1;fill-rule:evenodd;stroke:none"
         d="m 6.73438,3.92969 1455.63002,0 0,1455.63001 -1455.63002,0 0,-1455.63001 z" /><path
         id="path16"
         style="fill:#437515;fill-opacity:1;fill-rule:evenodd;stroke:none"
         d="m 541.168,331.488 c -50.52,9.172 -101.508,23.293 -148.32,43.469 -41.618,17.934 -79.973,40.656 -111.84,68.953 -29.664,26.336 -53.707,57.418 -69.586,93.856 -11.258,25.836 -18.41,54.308 -20.563,85.617 -50.113,-51.82 -79.461,-97.305 -92.3395,-136.738 -8.4297,-25.805 -9.6914,-48.891 -5.0742,-69.332 4.5742,-20.258 14.9997,-38.149 30.0037,-53.711 23.371,-24.235 57.785,-42.946 98.684,-56.305 33.258,-10.863 70.648,-18.133 109.82,-21.922 40.539,-3.922 83.004,-4.117 124.82,-0.687 l 6.219,0.539 6.141,0.582 c 17.367,1.726 34.601,4.089 51.472,7.066 16.743,2.961 33.04,6.496 48.68,10.602 l 8.305,2.246 8.148,2.382 c 12.934,3.84 25.313,8.036 37.028,12.583 l -3.422,0.292 -0.067,-0.003 c -11.148,0.992 -22.597,2.226 -34.277,3.73 -11.594,1.488 -22.914,3.156 -33.879,5.012 l -0.031,0.023 -4.906,0.844 -0.071,0 -4.914,0.875 -0.031,0.027" /><path
         id="path18"
         style="fill:#437515;fill-opacity:1;fill-rule:evenodd;stroke:none"
         d="m 620.27,438.977 c 20.035,113.519 48.207,234.992 88.046,349.066 39.223,112.316 89.762,217.467 154.969,300.817 11.524,14.72 23.481,28.77 35.914,42.06 -102.422,35.08 -258.285,74.01 -368.183,30.24 -32.762,-13.05 -57.61,-33.91 -73.059,-68.17 -6.473,-14.34 -14.676,-32.83 -23.102,-51.83 -24.039,-54.195 -49.632,-111.883 -79.48,-170.992 l 1.184,-1.527 -0.305,-0.235 -0.031,-0.031 -2.895,-2.25 C 319.18,798.871 279.449,729.828 230.164,662.047 c 31.473,-54.445 70.652,-97.594 114.934,-130.91 67.851,-51.063 147.675,-79.059 230.101,-89.266 14.899,-1.851 29.887,-3.117 44.903,-3.836 l 0.168,0.942" /><path
         id="path20"
         style="fill:#6b221d;fill-opacity:1;fill-rule:evenodd;stroke:none"
         d="m 1077.34,1027.3 c 76.99,33.54 142.98,56.58 195.88,67.16 60.05,12.01 103.69,7.95 128.07,-14.96 23.21,28.66 44.55,65.45 64.09,114.1 -101.09,48.26 -190.52,68.2 -269.65,65.83 -5.66,-25.72 -16.23,-54.1 -31.57,-85.09 -21.16,-42.75 -51.43,-90.58 -90.46,-143.25 l -5.97,-8.01 9.61,4.22" /><path
         id="path22"
         style="fill:#a13f38;fill-opacity:1;fill-rule:evenodd;stroke:none"
         d="m 1274.66,1084.4 c -51.29,-10.25 -115.35,-32.54 -190.21,-64.99 -10.04,-4.34 -20.27,-8.87 -30.69,-13.59 l -18.14,-8.199 12.15,15.799 c 6.44,8.38 12.67,16.63 18.69,24.78 38.15,51.6 67.75,98.41 88.44,140.2 14.55,29.41 24.67,56.29 30.24,80.57 -43.57,-2.43 -83.96,-11.7 -121.41,-26.79 -1.51,-29.68 -10.61,-65.69 -25.91,-106.86 -5.84,-15.74 -12.59,-32.25 -20.18,-49.48 -25.476,-57.88 -60.312,-123.766 -101.46,-195.059 30.054,15.356 58.144,23.317 82.304,25.633 20.926,2.012 39.036,-0.219 53.076,-5.57 26.01,13.871 51.02,25.027 75.06,34.597 109.84,43.723 199.44,54.372 271.27,139.949 l -3.74,-3.79 c -21.77,20.78 -62.56,24.19 -119.49,12.8" /><path
         id="path24"
         style="fill:#6b221d;fill-opacity:1;fill-rule:evenodd;stroke:none"
         d="m 898.332,870.094 c 45.281,77.609 83.434,149.106 110.608,211.146 7.17,16.37 13.58,32.08 19.15,47.08 14.24,38.34 23,71.84 25.08,99.43 -52.76,-23.13 -99.553,-57.94 -141.045,-101.39 -44.043,-46.11 -82.117,-101.95 -115.059,-163.895 6.77,-46.09 7.129,-101.141 -3.343,-171.324 -1.41,-9.43 -3.012,-19.141 -4.821,-29.133 14,7.16 31.215,12.308 49.43,15.879 5.531,1.086 11.164,2.027 16.824,2.836 0.465,0.066 0.926,0.129 1.387,0.195 0.945,0.129 1.891,0.258 2.832,0.379 10.941,1.433 21.961,2.379 32.605,2.941 52.102,49.36 101.02,83.918 146.91,109.68 -11.19,2.809 -24.73,3.73 -40.031,2.266 -26.953,-2.586 -59.164,-12.621 -93.644,-32.829 l -16.438,-9.632 9.555,16.371" /><path
         id="path26"
         style="fill:#a13f38;fill-opacity:1;fill-rule:evenodd;stroke:none"
         d="m 783.543,792.656 c 9.121,61.559 9.758,111.254 4.996,153.418 -24.82,-48.785 -46.605,-101.043 -65.734,-155.094 -8.887,-25.109 -17.196,-50.609 -24.977,-76.328 11.328,-27.164 16.844,-60.453 13.047,-103.566 21.625,19.453 41.469,30.441 60.402,37.129 32.75,42.902 64.403,79.426 95.012,110.723 2.863,2.921 5.715,5.808 8.563,8.64 1.031,1.039 2.062,2.059 3.097,3.078 0.871,0.864 1.75,1.727 2.625,2.582 -2.156,-0.168 -4.324,-0.359 -6.492,-0.558 -1.867,-0.18 -3.746,-0.371 -5.617,-0.578 -2.785,-0.301 -5.578,-0.633 -8.36,-1 -3.003,-0.391 -5.992,-0.821 -8.968,-1.289 -25.692,-4.036 -50.125,-10.942 -66.574,-21.918 l -10.04,-6.707 2.211,11.55 c 2.657,13.84 4.914,27.133 6.809,39.918" /><path
         id="path28"
         style="fill:#437515;fill-opacity:1;fill-rule:evenodd;stroke:none"
         d="M 876.207,751.059 C 805.84,679.34 729.719,579.555 647.477,437.328 c 7.851,-0.039 15.703,0.07 23.546,0.324 4.739,0.149 9.465,0.356 14.196,0.602 30.496,1.633 60.781,5.34 90.406,10.871 6.719,1.262 13.402,2.602 20.047,4.051 17.422,3.769 34.566,8.172 51.348,13.137 65.273,19.32 124.828,47.199 172.9,80.386 4.02,2.774 7.96,5.582 11.81,8.43 10.12,7.473 19.67,15.187 28.58,23.109 0.51,0.469 1.03,0.926 1.54,1.387 2.26,2.039 4.48,4.086 6.66,6.148 1.86,1.766 3.69,3.54 5.5,5.325 42.74,42.375 66.97,89.726 63.67,136.855 l -0.02,0.344 -4.69,128.113 -0.03,0.719 0.1,0.82 c 2.72,23.578 1.96,45.457 -1.76,65.766 -71.6,-28.52 -151.964,-71.356 -241.882,-159.469 -1.46,-1.43 -2.929,-2.883 -4.402,-4.344 -2.922,-2.898 -5.851,-5.843 -8.789,-8.843" /><path
         id="path30"
         style="fill:#2e5708;fill-opacity:1;fill-rule:evenodd;stroke:none"
         d="m 852.824,386.547 0,0 z m 392.226,386.91 c -4.32,-92.719 -57.03,-167.91 -128.77,-229.48 -0.76,-0.649 -1.51,-1.289 -2.27,-1.938 -0.99,-0.84 -1.98,-1.676 -2.97,-2.508 -2.21,-1.851 -4.43,-3.691 -6.68,-5.515 -6.32,-5.153 -12.76,-10.203 -19.32,-15.164 -4.02,-3.036 -8.09,-6.043 -12.19,-9.012 C 1003.07,459.332 922.684,419.191 852.824,386.547 815.203,368.965 775.852,350.574 735.297,332.715 l -17.602,-7.68 c -48.035,-20.746 -98.988,-37 -150.183,-49.586 -1.153,-0.285 -2.313,-0.566 -3.465,-0.844 -5.094,-1.234 -10.184,-2.433 -15.277,-3.597 -34.153,-7.797 -68.29,-14.012 -101.598,-18.879 26.719,-0.203 54.008,-0.039 81.609,0.754 3.832,0.109 7.672,0.226 11.512,0.367 78.07,2.73 158.289,10.738 234.656,30.016 114.793,28.972 248.491,78.285 345.971,154.687 4.05,3.176 8.04,6.402 11.97,9.672 11.24,9.371 21.94,19.133 32,29.289 74.55,75.324 113.94,172.625 80.16,296.543" /><path
         id="path32"
         style="fill:#2e5708;fill-opacity:1;fill-rule:evenodd;stroke:none"
         d="M 215.648,673.34 C 262.27,730.043 297.254,791.449 330.086,847.203 231.398,769.02 129.629,651.641 90.7578,532.836 c 4.9805,6.871 9.7692,14.062 14.7732,21.59 21.043,31.64 50.891,73.058 110.117,118.914" /></g></g></svg>